HIERARCHY
ROOT Hips
{
	OFFSET 0.000000 100.481300 0.000000
	CHANNELS 6 Xposition Yposition Zposition Xrotation Yrotation Zrotation 
	JOINT Spine
	{
		OFFSET -0.279200 12.230698 -2.892100
		CHANNELS 3 Xrotation Yrotation Zrotation
		JOINT Spine1
		{
			OFFSET -0.232667 10.192268 -1.242267
			CHANNELS 3 Xrotation Yrotation Zrotation
			JOINT Spine1_split
			{
				OFFSET -0.232667 10.192268 -1.242267
				CHANNELS 3 Xrotation Yrotation Zrotation
				JOINT Spine2
				{
					OFFSET -0.232667 10.192268 -1.242267
					CHANNELS 3 Xrotation Yrotation Zrotation
					JOINT Neck
					{
						OFFSET -0.418800 17.814194 8.416900
						CHANNELS 3 Xrotation Yrotation Zrotation
						JOINT Head
						{
							OFFSET 0.000000 7.031097 3.806800
							CHANNELS 3 Xrotation Yrotation Zrotation
							JOINT HeadTop_End
							{
								OFFSET 0.000000 24.646606 12.978600
								CHANNELS 3 Xrotation Yrotation Zrotation
								End Site
								{
									OFFSET 0.000000 0.000000 0.000000
								}
							}
						}
					}
					JOINT LeftShoulder
					{
						OFFSET 8.476499 7.247704 -3.868750
						CHANNELS 3 Xrotation Yrotation Zrotation
						JOINT LeftShoulder_split
						{
							OFFSET 8.476499 7.247704 -3.868750
							CHANNELS 3 Xrotation Yrotation Zrotation
							JOINT LeftArm
							{
								OFFSET 9.308998 -2.777710 0.208600
								CHANNELS 3 Xrotation Yrotation Zrotation
								JOINT LeftForeArm
								{
									OFFSET 29.972298 0.000000 0.000000
									CHANNELS 3 Xrotation Yrotation Zrotation
									JOINT LeftHand
									{
										OFFSET 26.026505 0.000000 0.000000
										CHANNELS 3 Xrotation Yrotation Zrotation
										JOINT LeftHandThumb1
										{
											OFFSET 12.240501 -7.147949 9.207150
											CHANNELS 3 Xrotation Yrotation Zrotation
											JOINT LeftHandThumb2
											{
												OFFSET 4.138618 -2.389435 2.389433
												CHANNELS 3 Xrotation Yrotation Zrotation
												JOINT LeftHandThumb3
												{
													OFFSET 2.726913 -1.574387 1.574386
													CHANNELS 3 Xrotation Yrotation Zrotation
													JOINT LeftHandThumb4
													{
														OFFSET 3.941010 -2.275345 2.275342
														CHANNELS 3 Xrotation Yrotation Zrotation
														End Site
														{
															OFFSET 0.000000 0.000000 0.000000
														}
													}
												}
											}
										}
										JOINT LeftHandIndex1
										{
											OFFSET 24.424698 -1.985611 5.953459
											CHANNELS 3 Xrotation Yrotation Zrotation
											JOINT LeftHandIndex2
											{
												OFFSET 6.426697 0.000000 0.000000
												CHANNELS 3 Xrotation Yrotation Zrotation
												JOINT LeftHandIndex3
												{
													OFFSET 5.337898 0.000000 0.000000
													CHANNELS 3 Xrotation Yrotation Zrotation
													JOINT LeftHandIndex4
													{
														OFFSET 4.409401 0.000000 0.000000
														CHANNELS 3 Xrotation Yrotation Zrotation
														End Site
														{
															OFFSET 0.000000 0.000000 0.000000
														}
													}
												}
											}
										}
										JOINT LeftHandMiddle1
										{
											OFFSET 23.810104 0.000000 0.000000
											CHANNELS 3 Xrotation Yrotation Zrotation
											JOINT LeftHandMiddle2
											{
												OFFSET 7.176498 0.000000 0.000000
												CHANNELS 3 Xrotation Yrotation Zrotation
												JOINT LeftHandMiddle3
												{
													OFFSET 6.774902 0.000000 0.000000
													CHANNELS 3 Xrotation Yrotation Zrotation
													JOINT LeftHandMiddle4
													{
														OFFSET 5.403328 0.000000 0.000000
														CHANNELS 3 Xrotation Yrotation Zrotation
														End Site
														{
															OFFSET 0.000000 0.000000 0.000000
														}
													}
												}
											}
										}
										JOINT LeftHandRing1
										{
											OFFSET 22.908401 -0.839279 -6.020567
											CHANNELS 3 Xrotation Yrotation Zrotation
											JOINT LeftHandRing2
											{
												OFFSET 6.337502 0.000000 0.000000
												CHANNELS 3 Xrotation Yrotation Zrotation
												JOINT LeftHandRing3
												{
													OFFSET 5.779297 0.000000 0.000000
													CHANNELS 3 Xrotation Yrotation Zrotation
													JOINT LeftHandRing4
													{
														OFFSET 4.965698 0.000000 0.000000
														CHANNELS 3 Xrotation Yrotation Zrotation
														End Site
														{
															OFFSET 0.000000 0.000000 0.000000
														}
													}
												}
											}
										}
										JOINT LeftHandPinky1
										{
											OFFSET 20.037003 -1.530319 -10.950146
											CHANNELS 3 Xrotation Yrotation Zrotation
											JOINT LeftHandPinky2
											{
												OFFSET 5.254700 0.000000 0.000000
												CHANNELS 3 Xrotation Yrotation Zrotation
												JOINT LeftHandPinky3
												{
													OFFSET 4.810204 0.000000 0.000000
													CHANNELS 3 Xrotation Yrotation Zrotation
													JOINT LeftHandPinky4
													{
														OFFSET 3.647202 0.000000 0.000000
														CHANNELS 3 Xrotation Yrotation Zrotation
														End Site
														{
															OFFSET 0.000000 0.000000 0.000000
														}
													}
												}
											}
										}
									}
								}
							}
						}
					}
					JOINT RightShoulder
					{
						OFFSET -7.570500 7.247704 -3.868750
						CHANNELS 3 Xrotation Yrotation Zrotation
						JOINT RightShoulder_split
						{
							OFFSET -7.570500 7.247704 -3.868750
							CHANNELS 3 Xrotation Yrotation Zrotation
							JOINT RightArm
							{
								OFFSET -9.308998 -2.777710 0.208500
								CHANNELS 3 Xrotation Yrotation Zrotation
								JOINT RightForeArm
								{
									OFFSET -29.972300 0.000000 0.000000
									CHANNELS 3 Xrotation Yrotation Zrotation
									JOINT RightHand
									{
										OFFSET -26.026505 0.000000 0.000000
										CHANNELS 3 Xrotation Yrotation Zrotation
										JOINT RightHandThumb1
										{
											OFFSET -12.240601 -7.148026 9.207092
											CHANNELS 3 Xrotation Yrotation Zrotation
											JOINT RightHandThumb2
											{
												OFFSET -4.138618 -2.389435 2.389433
												CHANNELS 3 Xrotation Yrotation Zrotation
												JOINT RightHandThumb3
												{
													OFFSET -2.726974 -1.574417 1.574421
													CHANNELS 3 Xrotation Yrotation Zrotation
													JOINT RightHandThumb4
													{
														OFFSET -3.941010 -2.275345 2.275343
														CHANNELS 3 Xrotation Yrotation Zrotation
														End Site
														{
															OFFSET 0.000000 0.000000 0.000000
														}
													}
												}
											}
										}
										JOINT RightHandIndex1
										{
											OFFSET -24.424698 -1.985657 5.953444
											CHANNELS 3 Xrotation Yrotation Zrotation
											JOINT RightHandIndex2
											{
												OFFSET -6.426697 0.000000 0.000000
												CHANNELS 3 Xrotation Yrotation Zrotation
												JOINT RightHandIndex3
												{
													OFFSET -5.337898 0.000000 0.000000
													CHANNELS 3 Xrotation Yrotation Zrotation
													JOINT RightHandIndex4
													{
														OFFSET -4.409401 0.000000 0.000000
														CHANNELS 3 Xrotation Yrotation Zrotation
														End Site
														{
															OFFSET 0.000000 0.000000 0.000000
														}
													}
												}
											}
										}
										JOINT RightHandMiddle1
										{
											OFFSET -23.810097 0.000000 0.000000
											CHANNELS 3 Xrotation Yrotation Zrotation
											JOINT RightHandMiddle2
											{
												OFFSET -7.176498 0.000000 0.000000
												CHANNELS 3 Xrotation Yrotation Zrotation
												JOINT RightHandMiddle3
												{
													OFFSET -6.774902 0.000000 0.000000
													CHANNELS 3 Xrotation Yrotation Zrotation
													JOINT RightHandMiddle4
													{
														OFFSET -5.403328 0.000000 0.000000
														CHANNELS 3 Xrotation Yrotation Zrotation
														End Site
														{
															OFFSET 0.000000 0.000000 0.000000
														}
													}
												}
											}
										}
										JOINT RightHandRing1
										{
											OFFSET -22.908302 -0.839325 -6.020576
											CHANNELS 3 Xrotation Yrotation Zrotation
											JOINT RightHandRing2
											{
												OFFSET -6.337502 0.000000 0.000000
												CHANNELS 3 Xrotation Yrotation Zrotation
												JOINT RightHandRing3
												{
													OFFSET -5.779297 0.000000 0.000000
													CHANNELS 3 Xrotation Yrotation Zrotation
													JOINT RightHandRing4
													{
														OFFSET -4.965698 0.000000 0.000000
														CHANNELS 3 Xrotation Yrotation Zrotation
														End Site
														{
															OFFSET 0.000000 0.000000 0.000000
														}
													}
												}
											}
										}
										JOINT RightHandPinky1
										{
											OFFSET -20.037003 -1.530334 -10.950259
											CHANNELS 3 Xrotation Yrotation Zrotation
											JOINT RightHandPinky2
											{
												OFFSET -5.254700 0.000000 0.000000
												CHANNELS 3 Xrotation Yrotation Zrotation
												JOINT RightHandPinky3
												{
													OFFSET -4.810204 0.000000 0.000000
													CHANNELS 3 Xrotation Yrotation Zrotation
													JOINT RightHandPinky4
													{
														OFFSET -3.647202 0.000000 0.000000
														CHANNELS 3 Xrotation Yrotation Zrotation
														End Site
														{
															OFFSET 0.000000 0.000000 0.000000
														}
													}
												}
											}
										}
									}
								}
							}
						}
					}
				}
			}
		}
	}
	JOINT LeftUpLeg
	{
		OFFSET 15.427100 -6.655098 0.678600
		CHANNELS 3 Xrotation Yrotation Zrotation
		JOINT LeftLeg
		{
			OFFSET 4.081073 -39.591068 13.024000
			CHANNELS 3 Xrotation Yrotation Zrotation
			JOINT LeftFoot
			{
				OFFSET -4.081074 -37.707932 -15.979700
				CHANNELS 3 Xrotation Yrotation Zrotation
				JOINT LeftToeBase
				{
					OFFSET 5.346399 -15.068900 20.645000
					CHANNELS 3 Xrotation Yrotation Zrotation
					JOINT LeftToe_End
					{
						OFFSET 2.754700 0.931300 11.300900
						CHANNELS 3 Xrotation Yrotation Zrotation
						End Site
						{
							OFFSET 0.000000 0.000000 0.000000
						}
					}
				}
			}
		}
	}
	JOINT RightUpLeg
	{
		OFFSET -15.569500 -6.655098 0.678600
		CHANNELS 3 Xrotation Yrotation Zrotation
		JOINT RightLeg
		{
			OFFSET -4.081825 -39.591045 13.023800
			CHANNELS 3 Xrotation Yrotation Zrotation
			JOINT RightFoot
			{
				OFFSET 4.081824 -37.707954 -15.979600
				CHANNELS 3 Xrotation Yrotation Zrotation
				JOINT RightToeBase
				{
					OFFSET -5.346400 -15.068900 20.645000
					CHANNELS 3 Xrotation Yrotation Zrotation
					JOINT RightToe_End
					{
						OFFSET -2.754700 0.931300 11.300900
						CHANNELS 3 Xrotation Yrotation Zrotation
						End Site
						{
							OFFSET 0.000000 0.000000 0.000000
						}
					}
				}
			}
		}
	}
}
MOTION
Frames: 4
Frame Time: 0.016667
-4.498381 90.398964 -9.379297 -2.953662 -1.532734 2.065448 8.850430 2.987829 -5.056967 1.276165 0.577129 -0.622581 0.000000 0.000000 0.000000 1.278390 0.567047 -0.629524 -6.061339 0.449846 0.950595 5.338942 4.042160 -5.183566 -0.000001 0.000001 -0.000000 -0.302513 5.872712 -1.999016 0.000000 0.000000 0.000000 -14.720680 -10.177258 -69.280999 -0.000001 -33.970199 0.000014 11.041594 5.640854 -12.077313 -1.528251 3.687852 6.128903 3.939051 7.948709 0.746802 -0.579467 1.574999 2.538711 0.000000 0.000001 0.000000 0.033128 0.675964 -5.610574 0.032963 0.674435 -5.597738 0.032976 0.674429 -5.597736 0.000000 0.000001 0.000000 0.069852 0.980266 -8.151108 0.078700 1.040188 -8.653159 0.076511 1.025674 -8.531537 0.000000 0.000001 -0.000002 0.141437 1.391195 -11.609550 0.158272 1.470741 -12.283630 0.154448 1.453026 -12.133350 -0.000002 0.000002 0.000002 1.260517 5.698224 -14.444257 0.229467 -2.281931 -15.368547 0.231639 1.774423 -14.874760 -0.000000 0.000000 -0.000001 4.545744 12.838999 -7.835328 0.000000 0.000000 0.000000 -1.611812 -3.214991 72.442530 -0.000002 36.829698 -0.000020 4.215989 0.157737 15.844598 -1.849260 -3.581791 -6.586136 4.637202 -8.634114 -0.225383 -1.273762 0.137310 -2.094876 0.000001 0.000000 -0.000001 0.097299 -1.161572 9.577324 0.097311 -1.161580 9.577304 0.097317 -1.161578 9.577296 -0.000003 -0.000001 -0.000002 0.734445 -4.504869 10.622742 0.142220 -1.401931 11.584696 -0.321082 -1.479190 11.440323 0.000000 -0.000002 -0.000002 1.799542 -8.681474 12.425427 0.204356 -1.676597 13.897315 -0.341213 -1.789773 13.721060 0.000000 -0.000000 -0.000000 3.081983 -12.378812 14.479216 0.252514 -1.860371 15.457591 0.252502 -1.860349 15.457620 0.000003 -0.000001 -0.000002 -17.275497 6.160087 3.810712 28.076288 6.886899 -1.174511 -7.149684 0.962350 -3.307071 -0.002833 0.000002 0.000001 0.000000 -0.000001 -0.000000 -4.547823 -17.178617 -13.818659 27.203802 -0.477505 -5.886311 -19.476250 -1.639477 16.010252 -6.790994 -0.000008 -0.000002 0.000000 0.000000 -0.000000 
-4.537595 90.393158 -9.493532 -2.857506 -1.605358 2.056540 8.973190 2.881682 -5.178628 1.296462 0.561210 -0.636463 0.000000 0.000000 0.000000 1.298516 0.551112 -0.643279 -6.130196 0.380287 1.181956 5.083279 4.090371 -5.065638 -0.000000 0.000000 -0.000000 -0.303984 5.822775 -1.781757 0.000000 0.000000 0.000000 -14.889691 -10.799710 -69.024430 -0.000012 -34.489891 -0.000020 10.925301 5.810032 -12.083933 -1.528119 3.687833 6.128753 3.939049 7.948714 0.746800 -0.579469 1.574999 2.538709 -0.000001 -0.000001 0.000000 0.033129 0.675965 -5.610574 0.032965 0.674435 -5.597737 0.032974 0.674422 -5.597737 -0.000001 0.000000 -0.000001 0.069855 0.980261 -8.151108 0.078696 1.040190 -8.653158 0.076508 1.025675 -8.531541 -0.000000 0.000000 -0.000001 0.141438 1.391194 -11.609550 0.158275 1.470738 -12.283629 0.154447 1.453026 -12.133350 -0.000000 0.000001 0.000002 1.260519 5.698224 -14.444254 0.229466 -2.281935 -15.368547 0.231639 1.774424 -14.874757 -0.000001 -0.000002 -0.000003 4.504496 12.696254 -7.406780 0.000000 0.000000 0.000000 -1.846147 -3.449438 72.003786 0.000006 37.086554 -0.000021 4.778069 -0.150855 16.413870 -1.849258 -3.581791 -6.586135 4.637197 -8.634116 -0.225379 -1.273760 0.137311 -2.094876 0.000002 0.000000 -0.000000 0.097301 -1.161574 9.577322 0.097306 -1.161582 9.577303 0.097322 -1.161578 9.577296 0.000001 -0.000002 -0.000002 0.734445 -4.504869 10.622742 0.142222 -1.401929 11.584695 -0.321083 -1.479190 11.440322 0.000002 0.000001 -0.000000 1.799541 -8.681475 12.425426 0.204353 -1.676596 13.897315 -0.341215 -1.789772 13.721060 -0.000000 0.000001 -0.000000 3.081985 -12.378813 14.479214 0.252513 -1.860372 15.457591 0.252505 -1.860348 15.457620 0.000000 0.000001 -0.000001 -17.425440 6.173806 3.918937 28.100109 7.133096 -1.217790 -7.086291 0.993129 -3.372869 -0.002875 0.000003 0.000001 0.000000 -0.000000 -0.000000 -4.757547 -17.076895 -13.728217 27.247237 -0.368143 -5.863283 -19.501460 -1.742317 15.885715 -6.654317 -0.000001 0.000000 0.000000 -0.000002 -0.000000 
-4.580553 90.390320 -9.617178 -2.748953 -1.672560 2.044401 9.103752 2.752836 -5.278474 1.319393 0.540907 -0.647528 0.000000 0.000000 0.000000 1.321271 0.530791 -0.654146 -6.190337 0.319003 1.390179 4.811084 4.139860 -4.959373 -0.000000 0.000000 0.000001 -0.303282 5.756984 -1.555982 0.000000 0.000000 0.000000 -15.042481 -11.360661 -68.812653 0.000017 -34.989201 0.000028 10.923339 5.925807 -12.107336 -1.527921 3.687830 6.128541 3.939048 7.948713 0.746803 -0.579469 1.574996 2.538713 0.000001 0.000000 -0.000003 0.033127 0.675967 -5.610575 0.032961 0.674434 -5.597737 0.032974 0.674424 -5.597736 0.000001 -0.000001 -0.000000 0.069850 0.980262 -8.151108 0.078702 1.040186 -8.653158 0.076512 1.025674 -8.531539 -0.000001 -0.000002 0.000000 0.141435 1.391195 -11.609550 0.158273 1.470740 -12.283629 0.154446 1.453025 -12.133352 0.000001 0.000001 -0.000000 1.260515 5.698226 -14.444255 0.229468 -2.281935 -15.368545 0.231638 1.774423 -14.874752 -0.000001 0.000001 -0.000000 4.474241 12.585512 -7.073516 0.000000 0.000000 0.000000 -2.036080 -3.701650 71.662222 0.000005 37.330191 0.000009 5.206096 -0.406979 16.986143 -1.849253 -3.581790 -6.586135 4.637200 -8.634113 -0.225384 -1.273761 0.137309 -2.094876 -0.000001 0.000001 -0.000002 0.097308 -1.161572 9.577320 0.097308 -1.161579 9.577306 0.097316 -1.161580 9.577294 0.000002 -0.000001 -0.000003 0.734452 -4.504867 10.622740 0.142218 -1.401931 11.584694 -0.321093 -1.479188 11.440325 -0.000002 0.000000 -0.000001 1.799547 -8.681475 12.425425 0.204357 -1.676596 13.897312 -0.341218 -1.789772 13.721062 0.000003 0.000000 0.000001 3.081990 -12.378810 14.479214 0.252513 -1.860372 15.457592 0.252505 -1.860349 15.457621 0.000002 0.000001 -0.000001 -17.594817 6.167813 4.027906 28.121473 7.408784 -1.247725 -7.010178 1.019936 -3.456435 -0.002943 -0.000003 0.000001 0.000000 -0.000000 -0.000000 -4.984164 -16.973968 -13.645889 27.294100 -0.281897 -5.829166 -19.512686 -1.825670 15.776991 -6.535773 -0.000005 -0.000001 -0.000000 0.000002 0.000000 
-4.637096 90.397926 -9.766371 -2.597128 -1.709092 2.026889 9.247993 2.554874 -5.323201 1.348061 0.507319 -0.651501 0.000000 0.000000 0.000000 1.349748 0.497194 -0.657720 -6.227115 0.278791 1.541825 4.498673 4.198866 -4.883208 0.000000 0.000001 0.000000 -0.297162 5.645770 -1.293704 0.000000 0.000000 0.000000 -15.168829 -11.755812 -68.723820 0.000014 -35.439734 0.000022 11.246036 5.895228 -12.186530 -1.527487 3.687786 6.128161 3.939048 7.948704 0.746802 -0.579468 1.574998 2.538710 -0.000000 0.000000 0.000002 0.033130 0.675964 -5.610574 0.032968 0.674432 -5.597737 0.032976 0.674426 -5.597735 -0.000000 0.000001 -0.000001 0.069853 0.980263 -8.151108 0.078698 1.040188 -8.653159 0.076509 1.025676 -8.531539 -0.000000 0.000000 -0.000002 0.141439 1.391194 -11.609552 0.158274 1.470740 -12.283629 0.154446 1.453023 -12.133354 0.000001 -0.000000 0.000000 1.260519 5.698222 -14.444255 0.229468 -2.281935 -15.368549 0.231637 1.774425 -14.874757 -0.000005 0.000001 0.000003 4.469005 12.563347 -6.980661 0.000000 0.000000 0.000000 -2.107498 -4.025331 71.586728 -0.000005 37.565303 0.000006 5.445491 -0.606390 17.768290 -1.849255 -3.581789 -6.586136 4.637200 -8.634111 -0.225385 -1.273759 0.137310 -2.094877 -0.000000 -0.000001 0.000001 0.097304 -1.161571 9.577323 0.097311 -1.161580 9.577303 0.097314 -1.161579 9.577294 0.000001 -0.000001 -0.000002 0.734446 -4.504867 10.622740 0.142217 -1.401931 11.584692 -0.321084 -1.479190 11.440321 -0.000002 -0.000001 -0.000001 1.799545 -8.681475 12.425425 0.204357 -1.676596 13.897315 -0.341224 -1.789772 13.721060 -0.000001 0.000000 -0.000001 3.081985 -12.378810 14.479214 0.252508 -1.860371 15.457591 0.252507 -1.860349 15.457621 0.000003 -0.000001 -0.000002 -17.825344 6.095539 4.132112 28.129811 7.793288 -1.230974 -6.894445 1.006992 -3.602957 -0.003075 -0.000002 0.000001 0.000000 0.000000 0.000000 -5.261457 -16.874054 -13.592074 27.348603 -0.264591 -5.754606 -19.485276 -1.859107 15.706732 -6.474730 0.000002 -0.000000 0.000000 -0.000002 -0.000000 
